<svg width="414" height="486" viewBox="0 0 414 486" fill="none" xmlns="http://www.w3.org/2000/svg">
<rect x="207" y="-32" width="207" height="518" fill="#161A19"/>
<rect y="-32" width="207" height="518" fill="#F5F5F5"/>
<g clip-path="url(#clip0)">
<path d="M301.135 448.001C300.992 446.366 299.549 445.156 297.912 445.299C296.276 445.442 295.065 446.884 295.208 448.519L296.764 466.286C296.907 467.922 298.35 469.131 299.986 468.988C301.623 468.845 302.834 467.403 302.69 465.768L301.135 448.001Z" fill="#161A19"/>
<path d="M288.306 445.741L280.763 461.905C280.069 463.393 280.713 465.162 282.202 465.856C283.691 466.549 285.46 465.906 286.155 464.418L293.697 448.254C294.391 446.766 293.747 444.997 292.258 444.304C290.77 443.61 289 444.254 288.306 445.741Z" fill="#161A19"/>
<path d="M301.135 448.001C300.992 446.366 299.549 445.156 297.912 445.299C296.276 445.442 295.065 446.884 295.208 448.519L296.764 466.286C296.907 467.922 298.35 469.131 299.986 468.988C301.623 468.845 302.834 467.403 302.69 465.768L301.135 448.001Z" fill="#161A19"/>
<path d="M288.306 445.741L280.763 461.905C280.069 463.393 280.713 465.162 282.202 465.856C283.691 466.549 285.46 465.906 286.155 464.418L293.697 448.254C294.391 446.766 293.747 444.997 292.258 444.304C290.77 443.61 289 444.254 288.306 445.741Z" fill="#161A19"/>
<path d="M301.135 448.001C300.992 446.366 299.549 445.156 297.912 445.299C296.276 445.442 295.065 446.884 295.208 448.519L296.764 466.286C296.907 467.922 298.35 469.131 299.986 468.988C301.623 468.845 302.834 467.403 302.69 465.768L301.135 448.001Z" fill="#3D403F"/>
<path d="M288.306 445.741L280.763 461.905C280.069 463.393 280.713 465.162 282.202 465.856C283.691 466.549 285.46 465.906 286.155 464.418L293.697 448.254C294.391 446.766 293.747 444.997 292.258 444.304C290.77 443.61 289 444.254 288.306 445.741Z" fill="#3D403F"/>
<path d="M302.18 299.797L288.846 300.963L296.882 392.76L310.217 391.594L302.18 299.797Z" fill="#9CA6A4"/>
<path d="M310.863 429.757C306.796 452.8 300.889 451.754 293.61 450.475C286.332 449.197 280.96 448.246 284.496 425.111C287.507 405.427 296.665 390.645 303.944 391.929C311.222 393.214 314.322 410.148 310.863 429.757Z" fill="#48A88C"/>
<path d="M312.694 393.686C313.265 390.453 309.793 387.138 304.939 386.283C300.086 385.428 295.689 387.356 295.118 390.589C294.547 393.823 298.019 397.137 302.873 397.992C307.726 398.848 312.123 396.92 312.694 393.686Z" fill="#3D403F"/>
<path d="M134.535 445.685C133.84 444.197 132.07 443.553 130.582 444.247C129.093 444.941 128.449 446.709 129.143 448.197L136.685 464.361C137.38 465.849 139.149 466.493 140.638 465.799C142.127 465.105 142.771 463.336 142.077 461.849L134.535 445.685Z" fill="#161A19"/>
<path d="M121.708 447.944L120.153 465.711C120.01 467.346 121.22 468.788 122.857 468.931C124.493 469.074 125.936 467.864 126.079 466.229L127.635 448.462C127.778 446.826 126.567 445.385 124.931 445.242C123.294 445.098 121.851 446.308 121.708 447.944Z" fill="#161A19"/>
<path d="M134.535 445.685C133.84 444.197 132.07 443.553 130.582 444.247C129.093 444.941 128.449 446.709 129.143 448.197L136.685 464.361C137.38 465.849 139.149 466.493 140.638 465.799C142.127 465.105 142.771 463.336 142.077 461.849L134.535 445.685Z" fill="#161A19"/>
<path d="M121.708 447.944L120.153 465.711C120.01 467.346 121.22 468.788 122.857 468.931C124.493 469.074 125.936 467.864 126.079 466.229L127.635 448.462C127.778 446.826 126.567 445.385 124.931 445.242C123.294 445.098 121.851 446.308 121.708 447.944Z" fill="#161A19"/>
<path d="M134.535 445.685C133.84 444.197 132.07 443.553 130.582 444.247C129.093 444.941 128.449 446.709 129.143 448.197L136.685 464.361C137.38 465.849 139.149 466.493 140.638 465.799C142.127 465.105 142.771 463.336 142.077 461.849L134.535 445.685Z" fill="#3D403F"/>
<path d="M121.708 447.944L120.153 465.711C120.01 467.346 121.22 468.788 122.857 468.931C124.493 469.074 125.936 467.864 126.079 466.229L127.635 448.462C127.778 446.826 126.567 445.385 124.931 445.242C123.294 445.098 121.851 446.308 121.708 447.944Z" fill="#3D403F"/>
<path d="M122.011 299.569L113.712 391.716L127.097 392.92L135.396 300.773L122.011 299.569Z" fill="#9CA6A4"/>
<path d="M137.432 425.215C141.495 448.258 135.591 449.292 128.312 450.579C121.033 451.867 115.661 452.809 111.06 429.861C107.151 410.338 110.697 393.318 117.979 392.033C125.26 390.749 133.97 405.606 137.432 425.215Z" fill="#48A88C"/>
<path d="M119.053 398.095C123.907 397.24 127.379 393.925 126.808 390.692C126.238 387.458 121.841 385.53 116.987 386.386C112.134 387.241 108.662 390.555 109.232 393.789C109.803 397.022 114.2 398.95 119.053 398.095Z" fill="#3D403F"/>
<path d="M242.927 402.568C242.927 413.863 226.466 434.543 211.002 434.543C195.537 434.543 179.076 413.866 179.076 402.963C179.076 392.203 195.54 392.661 211.002 392.661C226.463 392.661 242.927 391.796 242.927 402.568Z" fill="#3D403F"/>
<path d="M144.774 299.999C144.774 314.348 136.492 325.979 126.275 325.979C116.057 325.979 107.776 314.348 107.776 299.999C107.776 285.651 123.559 276.752 133.774 276.752C143.988 276.752 144.774 285.648 144.774 299.999Z" fill="#3D403F"/>
<path d="M277.512 300.558C277.512 314.909 285.793 326.541 296.01 326.541C306.228 326.541 314.509 314.909 314.509 300.558C314.509 286.207 298.726 277.313 288.512 277.313C278.297 277.313 277.512 286.21 277.512 300.558Z" fill="#3D403F"/>
<path d="M228.724 246.771H193.723C187.096 246.771 181.724 252.14 181.724 258.762V260.763C181.724 267.385 187.096 272.754 193.723 272.754H228.724C235.351 272.754 240.723 267.385 240.723 260.763V258.762C240.723 252.14 235.351 246.771 228.724 246.771Z" fill="#3D403F"/>
<path d="M280.57 313.557C280.57 324.121 278.458 334.587 274.026 344.173C242.198 413.269 240.14 413.569 210.594 413.566C180.159 413.566 178.585 413.269 147.067 344.034C142.805 334.533 140.629 324.23 140.684 313.818C140.684 264.38 140.684 264.38 210.615 264.38C280.546 264.38 280.576 264.38 280.57 313.557Z" fill="#48A88C"/>
<path d="M209.692 119.382C223.203 90.1659 228.604 72.7145 258.754 90.2521" stroke="#5E6665" stroke-width="7"/>
<path d="M258.737 100.513C264.404 100.513 268.999 95.9218 268.999 90.2581C268.999 84.5943 264.404 80.003 258.737 80.003C253.069 80.003 248.475 84.5943 248.475 90.2581C248.475 95.9218 253.069 100.513 258.737 100.513Z" fill="#5E6665"/>
<path d="M271.212 137.577H280.784C289.856 137.577 298.557 141.178 304.972 147.589C311.387 154 314.991 162.695 314.991 171.761V199.107C314.991 208.173 311.387 216.868 304.972 223.279C298.557 229.69 289.856 233.291 280.784 233.291H271.206L271.212 137.577Z" fill="#48A88C"/>
<path d="M150.797 233.303H141.219C132.147 233.303 123.446 229.701 117.031 223.291C110.616 216.88 107.012 208.185 107.012 199.119V171.773C107.012 162.707 110.616 154.012 117.031 147.601C123.446 141.19 132.147 137.589 141.219 137.589H150.797V233.303Z" fill="#48A88C"/>
<path d="M293.257 185.407C293.257 253.774 231.131 253.774 211.16 253.774C191.189 253.774 129.062 253.774 129.062 185.407C129.062 117.04 148.769 117.04 211.16 117.04C273.55 117.04 293.257 117.034 293.257 185.407Z" fill="#F1F5F4"/>
<path fill-rule="evenodd" clip-rule="evenodd" d="M190.587 117.18C188.986 124.876 184.78 131.786 178.679 136.747C172.577 141.707 164.951 144.416 157.085 144.417H137.929C136.449 144.413 134.97 144.314 133.503 144.12C140.951 121.431 158.192 117.771 190.587 117.18Z" fill="#48A88C"/>
<path fill-rule="evenodd" clip-rule="evenodd" d="M288.746 143.98C286.938 144.272 285.108 144.418 283.276 144.417H264.126C256.256 144.416 248.627 141.705 242.524 136.74C236.421 131.775 232.216 124.86 230.618 117.159C263.647 117.688 281.188 121.16 288.746 143.98Z" fill="#48A88C"/>
<path d="M140.684 149.815L188.458 146.382C190.268 146.251 192.055 146.845 193.427 148.032C194.799 149.219 195.642 150.901 195.773 152.71L198.093 184.599C198.364 188.365 172.512 185.169 168.758 185.44L143.576 196.078C139.807 196.349 136.826 191.153 136.556 187.387L134.375 157.127C134.244 155.322 134.835 153.538 136.017 152.168C137.2 150.797 138.878 149.951 140.684 149.815Z" fill="#5E6665"/>
<path d="M140.684 149.815L188.457 146.382C190.267 146.251 192.054 146.845 193.426 148.032C194.798 149.219 195.642 150.901 195.772 152.71L134.36 157.127C134.229 155.32 134.821 153.534 136.007 152.163C137.193 150.792 138.875 149.947 140.684 149.815Z" fill="#3D403F"/>
<path d="M235.631 147.966L283.143 153.997C284.034 154.11 284.895 154.398 285.675 154.843C286.455 155.288 287.14 155.883 287.69 156.593C288.241 157.303 288.646 158.114 288.882 158.981C289.118 159.847 289.182 160.751 289.068 161.642L284.865 194.702C284.389 198.448 282.054 202.252 278.321 201.777L254.944 186.965C251.194 186.489 223.507 189.185 223.983 185.44L227.995 153.887C228.224 152.091 229.156 150.459 230.588 149.348C232.019 148.238 233.833 147.741 235.631 147.966Z" fill="#5E6665"/>
<path d="M235.631 147.966L283.143 153.997C284.035 154.11 284.895 154.398 285.675 154.843C286.456 155.288 287.14 155.883 287.691 156.593C288.241 157.303 288.646 158.114 288.882 158.981C289.118 159.847 289.182 160.751 289.068 161.642L227.98 153.887C228.094 152.996 228.381 152.136 228.827 151.357C229.273 150.577 229.868 149.893 230.578 149.343C231.289 148.793 232.101 148.388 232.968 148.152C233.835 147.916 234.74 147.852 235.631 147.966Z" fill="#3D403F"/>
<path d="M167.909 228.886C186.803 228.886 202.119 213.58 202.119 194.699C202.119 175.819 186.803 160.513 167.909 160.513C149.016 160.513 133.699 175.819 133.699 194.699C133.699 213.58 149.016 228.886 167.909 228.886Z" fill="#3D403F"/>
<path d="M167.909 219.965C181.873 219.965 193.193 208.653 193.193 194.699C193.193 180.745 181.873 169.433 167.909 169.433C153.946 169.433 142.626 180.745 142.626 194.699C142.626 208.653 153.946 219.965 167.909 219.965Z" fill="#161A19"/>
<path opacity="0.5" d="M168.168 174.507C170.352 176.689 163.382 178.487 157.647 184.218C151.913 189.949 149.586 197.44 147.403 195.258C145.22 193.076 146.475 185.291 152.21 179.56C157.945 173.829 165.985 172.325 168.168 174.507Z" fill="#9CA6A4" fill-opacity="0.6"/>
<path opacity="0.2" d="M176.557 214.909C175.51 213.863 179.715 212.796 183.211 209.303C186.706 205.81 187.345 200.873 188.389 201.919C189.433 202.966 188.246 207.27 184.754 210.777C181.262 214.285 177.601 215.955 176.557 214.909Z" fill="#9CA6A4" fill-opacity="0.6"/>
<path d="M253.436 228.886C272.329 228.886 287.646 213.58 287.646 194.699C287.646 175.819 272.329 160.513 253.436 160.513C234.542 160.513 219.226 175.819 219.226 194.699C219.226 213.58 234.542 228.886 253.436 228.886Z" fill="#3D403F"/>
<path d="M253.436 219.965C267.4 219.965 278.719 208.653 278.719 194.699C278.719 180.745 267.4 169.433 253.436 169.433C239.472 169.433 228.152 180.745 228.152 194.699C228.152 208.653 239.472 219.965 253.436 219.965Z" fill="#161A19"/>
<path opacity="0.2" d="M261.925 214.909C260.878 213.863 265.084 212.796 268.579 209.303C272.074 205.81 272.713 200.873 273.757 201.919C274.801 202.966 273.615 207.27 270.123 210.777C266.63 214.285 262.969 215.955 261.925 214.909Z" fill="#9CA6A4" fill-opacity="0.6"/>
<path opacity="0.5" d="M254.518 174.507C256.702 176.689 249.729 178.487 243.994 184.218C238.259 189.949 235.933 197.44 233.75 195.258C231.567 193.076 232.825 185.291 238.56 179.56C244.295 173.829 252.335 172.325 254.518 174.507Z" fill="#9CA6A4" fill-opacity="0.6"/>
<path d="M224.372 230.758C224.372 234.537 218.244 237.595 210.689 237.595C203.133 237.595 197.006 234.534 197.006 230.758C197.006 226.983 203.13 230.758 210.689 230.758C218.247 230.758 224.372 226.992 224.372 230.758Z" fill="#161A19"/>
</g>
<defs>
<clipPath id="clip0">
<rect width="208" height="389" fill="white" transform="translate(107 80)"/>
</clipPath>
</defs>
</svg>
