<svg width="334" height="387" viewBox="0 0 334 387" fill="none" xmlns="http://www.w3.org/2000/svg">
<path opacity="0.15" d="M314.5 215.5C284.5 323 176.866 351 88.5 351C0.134438 351 0 269.366 0 181C24 28 146.634 0 235 0C323.366 0 337.384 133.5 314.5 215.5Z" fill="#5CDDBE"/>
<path opacity="0.8" d="M84.3832 71.508C84.5682 70.036 84.707 68.564 84.707 67C84.707 65.436 84.5682 63.964 84.3832 62.492L94.1445 54.902C95.0235 54.212 95.2548 52.97 94.6997 51.958L85.4472 36.042C84.8921 35.03 83.643 34.662 82.6252 35.03L71.1059 39.63C68.7002 37.79 66.1095 36.272 63.2875 35.122L61.5296 22.932C61.3908 21.828 60.4193 21 59.2627 21H40.7577C39.6012 21 38.6297 21.828 38.4909 22.932L36.7329 35.122C33.9109 36.272 31.3202 37.836 28.9146 39.63L17.3952 35.03C16.3312 34.616 15.1284 35.03 14.5732 36.042L5.32074 51.958C4.71933 52.97 4.99691 54.212 5.87589 54.902L15.6373 62.492C15.4522 63.964 15.3134 65.482 15.3134 67C15.3134 68.518 15.4522 70.036 15.6373 71.508L5.87589 79.098C4.99691 79.788 4.7656 81.03 5.32074 82.042L14.5732 97.958C15.1284 98.97 16.3775 99.338 17.3952 98.97L28.9146 94.37C31.3202 96.21 33.9109 97.728 36.7329 98.878L38.4909 111.068C38.6297 112.172 39.6012 113 40.7577 113H59.2627C60.4193 113 61.3908 112.172 61.5296 111.068L63.2875 98.878C66.1095 97.728 68.7002 96.164 71.1059 94.37L82.6252 98.97C83.6892 99.384 84.8921 98.97 85.4472 97.958L94.6997 82.042C95.2548 81.03 95.0235 79.788 94.1445 79.098L84.3832 71.508ZM50.0102 83.1C41.0816 83.1 33.8184 75.878 33.8184 67C33.8184 58.122 41.0816 50.9 50.0102 50.9C58.9389 50.9 66.2021 58.122 66.2021 67C66.2021 75.878 58.9389 83.1 50.0102 83.1Z" fill="#5CDDBE"/>
<path opacity="0.5" d="M327.866 284.097C327.973 283.249 328.053 282.401 328.053 281.5C328.053 280.599 327.973 279.751 327.866 278.903L333.506 274.531C334.014 274.133 334.147 273.417 333.826 272.834L328.481 263.666C328.16 263.083 327.438 262.871 326.85 263.083L320.195 265.733C318.805 264.673 317.308 263.798 315.677 263.136L314.662 256.113C314.581 255.477 314.02 255 313.352 255H302.66C301.992 255 301.43 255.477 301.35 256.113L300.335 263.136C298.704 263.798 297.207 264.699 295.817 265.733L289.162 263.083C288.547 262.844 287.852 263.083 287.531 263.666L282.185 272.834C281.838 273.417 281.998 274.133 282.506 274.531L288.146 278.903C288.039 279.751 287.959 280.625 287.959 281.5C287.959 282.375 288.039 283.249 288.146 284.097L282.506 288.47C281.998 288.867 281.865 289.583 282.185 290.166L287.531 299.335C287.852 299.917 288.574 300.13 289.162 299.918L295.817 297.268C297.207 298.328 298.704 299.202 300.335 299.865L301.35 306.887C301.43 307.523 301.992 308 302.66 308H313.352C314.02 308 314.581 307.523 314.662 306.887L315.677 299.865C317.308 299.202 318.805 298.301 320.195 297.268L326.85 299.918C327.465 300.156 328.16 299.917 328.481 299.335L333.826 290.166C334.147 289.583 334.014 288.867 333.506 288.47L327.866 284.097ZM308.006 290.775C302.847 290.775 298.651 286.615 298.651 281.5C298.651 276.385 302.847 272.225 308.006 272.225C313.165 272.225 317.361 276.385 317.361 281.5C317.361 286.615 313.165 290.775 308.006 290.775Z" fill="#9FA6A4"/>
<path opacity="0.75" d="M309.563 326.018C309.727 324.706 309.851 323.394 309.851 322C309.851 320.606 309.727 319.294 309.563 317.982L318.24 311.217C319.021 310.602 319.227 309.495 318.733 308.593L310.509 294.407C310.015 293.505 308.905 293.177 308 293.505L297.761 297.605C295.622 295.965 293.32 294.612 290.811 293.587L289.248 282.722C289.125 281.738 288.262 281 287.234 281H270.785C269.757 281 268.893 281.738 268.77 282.722L267.207 293.587C264.699 294.612 262.396 296.006 260.257 297.605L250.018 293.505C249.072 293.136 248.003 293.505 247.51 294.407L239.285 308.593C238.751 309.495 238.997 310.602 239.779 311.217L248.455 317.982C248.291 319.294 248.167 320.647 248.167 322C248.167 323.353 248.291 324.706 248.455 326.018L239.779 332.783C238.997 333.398 238.792 334.505 239.285 335.407L247.51 349.593C248.003 350.495 249.113 350.823 250.018 350.495L260.257 346.395C262.396 348.035 264.699 349.388 267.207 350.413L268.77 361.278C268.893 362.262 269.757 363 270.785 363H287.234C288.262 363 289.125 362.262 289.248 361.278L290.811 350.413C293.32 349.388 295.622 347.994 297.761 346.395L308 350.495C308.946 350.864 310.015 350.495 310.509 349.593L318.733 335.407C319.227 334.505 319.021 333.398 318.24 332.783L309.563 326.018ZM279.009 336.35C271.073 336.35 264.616 329.913 264.616 322C264.616 314.087 271.073 307.65 279.009 307.65C286.946 307.65 293.402 314.087 293.402 322C293.402 329.913 286.946 336.35 279.009 336.35Z" fill="#5CDDBE"/>
<path d="M282.077 150.249C281.673 151.5 282.362 152.844 283.617 153.25C284.872 153.656 286.217 152.97 286.621 151.718L291.012 138.119C291.416 136.867 290.726 135.523 289.471 135.117C288.216 134.712 286.871 135.397 286.467 136.649L282.077 150.249Z" fill="#161A19"/>
<path d="M290.861 155.926L301.48 146.353C302.458 145.472 302.533 143.965 301.648 142.988C300.763 142.011 299.254 141.933 298.276 142.814L287.657 152.387C286.68 153.268 286.605 154.775 287.489 155.752C288.374 156.729 289.884 156.807 290.861 155.926Z" fill="#161A19"/>
<path d="M282.077 150.249C281.673 151.5 282.362 152.844 283.617 153.25C284.872 153.656 286.217 152.97 286.621 151.718L291.012 138.119C291.416 136.867 290.726 135.523 289.471 135.117C288.216 134.712 286.871 135.397 286.467 136.649L282.077 150.249Z" fill="#161A19"/>
<path d="M290.861 155.926L301.48 146.353C302.458 145.472 302.533 143.965 301.648 142.988C300.763 142.011 299.254 141.933 298.276 142.814L287.657 152.387C286.68 153.268 286.605 154.775 287.489 155.752C288.374 156.729 289.884 156.807 290.861 155.926Z" fill="#161A19"/>
<path d="M282.077 150.249C281.673 151.5 282.362 152.844 283.617 153.25C284.872 153.656 286.217 152.97 286.621 151.718L291.012 138.119C291.416 136.867 290.726 135.523 289.471 135.117C288.216 134.712 286.871 135.397 286.467 136.649L282.077 150.249Z" fill="#161A19"/>
<path d="M290.861 155.926L301.48 146.353C302.458 145.472 302.533 143.965 301.648 142.988C300.763 142.011 299.254 141.933 298.276 142.814L287.657 152.387C286.68 153.268 286.605 154.775 287.489 155.752C288.374 156.729 289.884 156.807 290.861 155.926Z" fill="#161A19"/>
<path d="M212.573 246.531L221.173 252.976L265.422 193.87L256.822 187.425L212.573 246.531Z" fill="#9CA6A4"/>
<path d="M269.197 160.677C279.389 144.943 283.431 147.558 288.418 150.777C293.404 153.996 297.079 156.375 287.248 172.345C278.884 185.933 267.496 193.992 262.518 190.759C257.54 187.526 260.524 174.069 269.197 160.677Z" fill="#48A88C"/>
<path d="M256.59 186.727C255.16 188.936 256.694 192.467 260.017 194.615C263.34 196.763 267.193 196.714 268.623 194.505C270.053 192.297 268.519 188.766 265.196 186.618C261.874 184.47 258.02 184.519 256.59 186.727Z" fill="#161A19"/>
<path d="M89.1077 367.319C88.5503 366.126 87.1294 365.611 85.934 366.167C84.7386 366.722 84.2214 368.14 84.7788 369.332L90.8346 382.283C91.392 383.475 92.813 383.991 94.0084 383.435C95.2038 382.879 95.7209 381.462 95.1635 380.27L89.1077 367.319Z" fill="#161A19"/>
<path d="M78.8086 369.129L77.5597 383.364C77.4448 384.675 78.4167 385.83 79.7307 385.945C81.0446 386.059 82.203 385.09 82.3179 383.78L83.5668 369.544C83.6818 368.233 82.7098 367.078 81.3958 366.964C80.0819 366.849 78.9235 367.818 78.8086 369.129Z" fill="#161A19"/>
<path d="M89.1077 367.319C88.5503 366.126 87.1294 365.611 85.934 366.167C84.7386 366.722 84.2214 368.14 84.7788 369.332L90.8346 382.283C91.392 383.475 92.813 383.991 94.0084 383.435C95.2038 382.879 95.7209 381.462 95.1635 380.27L89.1077 367.319Z" fill="#161A19"/>
<path d="M78.8086 369.129L77.5597 383.364C77.4448 384.675 78.4167 385.83 79.7307 385.945C81.0446 386.059 82.203 385.09 82.3179 383.78L83.5668 369.544C83.6818 368.233 82.7098 367.078 81.3958 366.964C80.0819 366.849 78.9235 367.818 78.8086 369.129Z" fill="#161A19"/>
<path d="M89.1077 367.319C88.5503 366.126 87.1294 365.611 85.934 366.167C84.7386 366.722 84.2214 368.14 84.7788 369.332L90.8346 382.283C91.392 383.475 92.813 383.991 94.0084 383.435C95.2038 382.879 95.7209 381.462 95.1635 380.27L89.1077 367.319Z" fill="#161A19"/>
<path d="M78.8086 369.129L77.5597 383.364C77.4448 384.675 78.4167 385.83 79.7307 385.945C81.0446 386.059 82.203 385.09 82.3179 383.78L83.5668 369.544C83.6818 368.233 82.7098 367.078 81.3958 366.964C80.0819 366.849 78.9235 367.818 78.8086 369.129Z" fill="#161A19"/>
<path d="M77.2299 250.427L70.7773 323.978L81.4834 324.912L87.9359 251.361L77.2299 250.427Z" fill="#9CA6A4"/>
<path d="M91.4307 350.918C94.6953 369.381 89.9524 370.209 84.1084 371.241C78.2645 372.272 73.9514 373.027 70.2569 354.64C67.1188 338.995 69.9655 325.346 75.8118 324.331C81.6581 323.316 88.6436 335.206 91.4307 350.918Z" fill="#48A88C"/>
<path d="M76.6765 329.189C80.5733 328.504 83.3609 325.849 82.9029 323.258C82.4448 320.667 78.9145 319.122 75.0177 319.807C71.1209 320.493 68.3333 323.148 68.7913 325.739C69.2494 328.33 72.7797 329.875 76.6765 329.189Z" fill="#161A19"/>
<path d="M176.131 332.762C176.131 341.813 162.915 358.382 150.499 358.382C138.083 358.382 124.866 341.815 124.866 333.079C124.866 324.457 138.085 324.824 150.499 324.824C162.913 324.824 176.131 324.14 176.131 332.762Z" fill="#161A19"/>
<path d="M97.3252 250.587C97.3252 262.086 90.6765 271.405 82.473 271.405C74.2695 271.405 67.6279 262.086 67.6279 250.587C67.6279 239.088 80.2997 231.962 88.5008 231.962C96.7019 231.962 97.3252 239.09 97.3252 250.587Z" fill="#161A19"/>
<path d="M203.892 251.037C203.892 262.536 210.54 271.855 218.744 271.855C226.947 271.855 233.608 262.545 233.608 251.037C233.608 239.529 220.951 232.412 212.735 232.412C204.52 232.412 203.892 239.541 203.892 251.037Z" fill="#161A19"/>
<path d="M164.73 207.94H136.628C131.307 207.94 126.994 212.242 126.994 217.548V219.151C126.994 224.457 131.307 228.759 136.628 228.759H164.73C170.051 228.759 174.364 224.457 174.364 219.151V217.548C174.364 212.242 170.051 207.94 164.73 207.94Z" fill="#161A19"/>
<path d="M206.354 261.452C206.354 269.917 204.658 278.303 201.1 285.983C175.546 341.346 173.893 341.586 150.171 341.584C125.735 341.584 124.472 341.346 99.1662 285.871C95.7009 278.272 94.0268 270.002 94.0244 261.652C94.0244 222.04 94.0244 222.04 150.171 222.04C206.318 222.04 206.358 222.057 206.354 261.452Z" fill="#48A88C"/>
<path d="M149.436 105.871C160.283 82.461 157.395 88.8035 166.76 68.4781L149.436 105.871Z" fill="#5E6665"/>
<path d="M149.436 105.871C160.283 82.461 157.395 88.8035 166.76 68.4781" stroke="#5E6665" stroke-width="5"/>
<path d="M169.685 70.436C174.235 70.436 177.924 66.7572 177.924 62.2191C177.924 57.6811 174.235 54.0023 169.685 54.0023C165.134 54.0023 161.445 57.6811 161.445 62.2191C161.445 66.7572 165.134 70.436 169.685 70.436Z" fill="#5E6665"/>
<path d="M198.841 120.449H206.531C213.815 120.449 220.801 123.335 225.951 128.471C231.102 133.608 233.995 140.574 233.995 147.838V169.75C233.995 177.014 231.102 183.981 225.951 189.117C220.801 194.254 213.815 197.139 206.531 197.139H198.841V120.449Z" fill="#48A88C"/>
<path d="M102.156 197.146H94.4663C87.1823 197.146 80.1966 194.261 75.0461 189.124C69.8955 183.988 67.002 177.021 67.002 169.757V147.845C67.002 140.581 69.8955 133.615 75.0461 128.478C80.1966 123.342 87.1823 120.456 94.4663 120.456H102.156V197.146Z" fill="#48A88C"/>
<path d="M216.539 158.773C216.539 213.551 166.659 213.551 150.624 213.551C134.59 213.551 84.71 213.551 84.71 158.773C84.71 103.994 100.532 103.994 150.624 103.994C200.717 103.994 216.539 103.987 216.539 158.773Z" fill="#F1F5F4"/>
<path fill-rule="evenodd" clip-rule="evenodd" d="M134.111 104.106C132.824 110.272 129.447 115.808 124.548 119.782C119.648 123.757 113.526 125.926 107.21 125.927H91.83C90.6416 125.924 89.4546 125.844 88.2764 125.689C94.2564 107.512 108.098 104.577 134.111 104.106Z" fill="#48A88C"/>
<path fill-rule="evenodd" clip-rule="evenodd" d="M212.919 125.579C211.467 125.811 209.998 125.927 208.527 125.927H193.147C186.829 125.927 180.704 123.755 175.803 119.777C170.903 115.799 167.527 110.259 166.244 104.089C192.77 104.513 206.86 107.295 212.919 125.579Z" fill="#48A88C"/>
<path d="M132.415 127.478L94.0597 130.234C91.0339 130.451 88.7577 133.073 88.9757 136.091L91.3439 168.878C91.5618 171.895 94.1914 174.165 97.2172 173.948L135.573 171.193C138.598 170.975 140.875 168.353 140.657 165.336L138.289 132.548C138.071 129.531 135.441 127.261 132.415 127.478Z" fill="#5E6665"/>
<path d="M164.127 133.512L159.973 166.122C159.59 169.123 161.72 171.865 164.729 172.247L202.878 177.08C205.887 177.461 208.637 175.337 209.019 172.336L213.173 139.726C213.555 136.725 211.426 133.983 208.416 133.601L170.268 128.768C167.258 128.387 164.509 130.511 164.127 133.512Z" fill="#5E6665"/>
<path d="M115.903 193.61C131.073 193.61 143.37 181.346 143.37 166.218C143.37 151.09 131.073 138.826 115.903 138.826C100.734 138.826 88.4365 151.09 88.4365 166.218C88.4365 181.346 100.734 193.61 115.903 193.61Z" fill="#3D403F"/>
<path d="M115.903 186.462C127.114 186.462 136.203 177.399 136.203 166.218C136.203 155.037 127.114 145.974 115.903 145.974C104.692 145.974 95.6035 155.037 95.6035 166.218C95.6035 177.399 104.692 186.462 115.903 186.462Z" fill="#161A19"/>
<path opacity="0.5" d="M116.108 150.039C117.864 151.787 112.266 153.228 107.661 157.82C103.057 162.412 101.189 168.414 99.4363 166.666C97.6833 164.918 98.6935 158.68 103.296 154.088C107.898 149.496 114.355 148.289 116.108 150.039Z" fill="#9CA6A4" fill-opacity="0.6"/>
<path opacity="0.2" d="M122.844 182.411C122.003 181.573 125.38 180.718 128.186 177.919C130.992 175.121 131.506 171.165 132.346 172.003C133.187 172.841 132.229 176.29 129.426 179.098C126.622 181.906 123.682 183.249 122.844 182.411Z" fill="#9CA6A4" fill-opacity="0.6"/>
<path d="M184.57 193.61C199.74 193.61 212.037 181.346 212.037 166.218C212.037 151.09 199.74 138.826 184.57 138.826C169.401 138.826 157.104 151.09 157.104 166.218C157.104 181.346 169.401 193.61 184.57 193.61Z" fill="#3D403F"/>
<path d="M184.57 186.462C195.782 186.462 204.87 177.399 204.87 166.218C204.87 155.037 195.782 145.974 184.57 145.974C173.359 145.974 164.271 155.037 164.271 166.218C164.271 177.399 173.359 186.462 184.57 186.462Z" fill="#161A19"/>
<path opacity="0.2" d="M191.384 182.411C190.543 181.573 193.92 180.718 196.726 177.919C199.532 175.121 200.046 171.165 200.886 172.003C201.727 172.841 200.769 176.29 197.966 179.098C195.162 181.906 192.222 183.249 191.384 182.411Z" fill="#9CA6A4" fill-opacity="0.6"/>
<path opacity="0.5" d="M185.437 150.039C187.19 151.787 181.592 153.228 176.987 157.82C172.383 162.412 170.515 168.414 168.762 166.666C167.009 164.918 168.02 158.68 172.624 154.088C177.229 149.496 183.693 148.289 185.437 150.039Z" fill="#9CA6A4" fill-opacity="0.6"/>
<path d="M161.245 195.117C161.245 198.142 156.325 200.595 150.259 200.595C144.193 200.595 139.273 198.14 139.273 195.117C139.273 192.095 144.191 195.117 150.259 195.117C156.328 195.117 161.245 192.093 161.245 195.117Z" fill="#161A19"/>
</svg>
