<svg width="165" height="166" viewBox="0 0 165 166" fill="none" xmlns="http://www.w3.org/2000/svg">
<rect x="3.23145" y="2.5" width="159" height="159" rx="79.5" fill="#5CDDBE" stroke="#5CDDBE" stroke-width="5"/>
<path d="M134 146C133.5 146.5 130.5 148.5 130 149C130 149 128.5 150 128 150.39C129.5 144.89 129.373 142.599 135.8 144.5C135.5 145 134.5 145.5 134 146Z" fill="#202625"/>
<path d="M49.4141 154.982C49.3698 157.195 48 156.5 43.0281 153.77C40 152 40.5 152.5 35.9999 149.4C38.4999 146.4 39.7316 146.148 43.0282 146.214C49.1202 146.336 49.5207 149.651 49.4141 154.982Z" fill="#202625"/>
<rect x="68.4282" y="128.828" width="35.1855" height="15.5055" rx="7.75273" transform="rotate(1.14626 68.4282 128.828)" fill="#202625"/>
<path d="M128.5 150.05C121 155 104.5 165 84.5004 164C76.0004 164 64.0004 164.5 45.0005 154.86C45.2176 144.008 45.3064 138.506 83.7643 139.276C128.781 140.176 128.717 139.198 128.5 150.05Z" fill="#E3E6E5"/>
<path d="M80.0956 56.9149C83.0167 37.3388 98.1983 32.436 107.205 33.8259" stroke="#9FA6A4" stroke-width="6"/>
<path d="M112.982 59.6478C127.383 58.0313 140.369 68.3956 141.985 82.7971L142.451 86.9456C144.067 101.347 133.703 114.332 119.302 115.949L112.982 59.6478Z" fill="#202625"/>
<path d="M48.1841 123.932C33.7826 125.548 20.7974 115.184 19.1809 100.782L18.7152 96.6338C17.0987 82.2323 27.4629 69.2471 41.8644 67.6305L48.1841 123.932Z" fill="#202625"/>
<path d="M129.179 86.3348C133.736 126.931 96.9646 131.058 85.1394 132.386C73.3142 133.713 36.5428 137.84 31.986 97.2445C27.4292 56.6486 39.0924 55.3394 76.0258 51.1937C112.959 47.048 124.622 45.7389 129.179 86.3348Z" fill="#E3E6E5"/>
<path fill-rule="evenodd" clip-rule="evenodd" d="M62.5023 52.7812C59.6853 62.6893 51.1229 70.407 40.2531 71.6271C37.4835 71.938 34.7664 71.8043 32.1731 71.283C35.2889 58.589 44.7988 55.2036 62.5023 52.7812Z" fill="#202625"/>
<circle cx="54.5688" cy="100.979" r="20.4332" transform="rotate(-6.4045 54.5688 100.979)" fill="#202625"/>
<circle cx="107.364" cy="95.0533" r="20.4332" transform="rotate(-6.4045 107.364 95.0533)" fill="#202625"/>
<path d="M91.9581 118.282C92.2235 120.647 88.7241 122.982 84.1418 123.496C79.5595 124.01 75.6296 122.51 75.3641 120.145C75.0986 117.779 79.0788 119.728 83.6611 119.213C88.2434 118.699 91.6926 115.917 91.9581 118.282Z" fill="#373F41"/>
<ellipse cx="103.435" cy="33.4144" rx="5.96364" ry="6.26182" transform="rotate(-6.4045 103.435 33.4144)" fill="#202625"/>
<path fill-rule="evenodd" clip-rule="evenodd" d="M123.337 60.8548C120.772 62.08 117.962 62.9046 114.978 63.2395C104.102 64.4603 94.0369 58.8263 89.0962 49.7809C107.212 48.1405 117.399 49.1979 123.337 60.8548Z" fill="#202625"/>
<path opacity="0.5" d="M55.4349 85.405C57.0117 87.0837 51.9831 88.4674 47.8469 92.8769C43.7108 97.2864 42.0331 103.05 40.4585 101.371C38.8838 99.6924 39.7913 93.7025 43.9253 89.293C48.0593 84.8836 53.8602 83.724 55.4349 85.405Z" fill="#C3CBCD"/>
<path opacity="0.5" d="M109.416 79.3617C111.092 80.9417 105.749 82.244 101.354 86.3941C96.9595 90.5442 95.177 95.9686 93.5039 94.3886C91.8308 92.8087 92.795 87.1712 97.1874 83.0211C101.58 78.8709 107.743 77.7796 109.416 79.3617Z" fill="#C3CBCD"/>
<path opacity="0.2" d="M60.8633 116.417C60.0165 115.561 63.418 114.687 66.2446 111.829C69.0712 108.97 69.5884 104.93 70.4352 105.786C71.282 106.642 70.3173 110.165 67.4931 113.033C64.6689 115.901 61.7076 117.273 60.8633 116.417Z" fill="#C3CBCD"/>
<path opacity="0.2" d="M114.863 109.417C114.016 108.561 117.418 107.687 120.245 104.829C123.071 101.97 123.588 97.9296 124.435 98.7859C125.282 99.6422 124.317 103.165 121.493 106.033C118.669 108.901 115.708 110.273 114.863 109.417Z" fill="#C3CBCD"/>
</svg>
