<svg width="164" height="176" viewBox="0 0 164 176" fill="none" xmlns="http://www.w3.org/2000/svg">
<path d="M0 93.3309C0 48.0436 36.7127 11.3309 82 11.3309C127.287 11.3309 164 48.0436 164 93.3309C164 138.618 127.287 175.331 82 175.331C36.7127 175.331 0 138.618 0 93.3309Z" fill="#5CDDBE"/>
<path fill-rule="evenodd" clip-rule="evenodd" d="M5 93.3309C5 135.857 39.4741 170.331 82 170.331C124.526 170.331 159 135.857 159 93.3309C159 50.805 124.526 16.3309 82 16.3309C39.4741 16.3309 5 50.805 5 93.3309ZM82 11.3309C36.7127 11.3309 0 48.0436 0 93.3309C0 138.618 36.7127 175.331 82 175.331C127.287 175.331 164 138.618 164 93.3309C164 48.0436 127.287 11.3309 82 11.3309Z" fill="#5CDDBE"/>
<mask id="mask0" mask-type="alpha" maskUnits="userSpaceOnUse" x="1" y="0" width="163" height="176">
<path d="M1.78906 80.8073C1.78906 36.1787 37.9677 0 82.5963 0C127.225 0 163.404 36.1787 163.404 80.8073V95.12C163.404 139.749 127.225 175.927 82.5963 175.927C37.9677 175.927 1.78906 139.749 1.78906 95.12V80.8073Z" fill="#07A0A0"/>
</mask>
<g mask="url(#mask0)">
<path d="M148.813 173.966C146.384 182.176 139.205 187.289 132.778 185.388C126.351 183.486 123.11 175.289 125.539 167.08C127.968 158.87 130.988 154.381 137.415 156.282C143.842 158.184 151.242 165.756 148.813 173.966Z" fill="#202625"/>
<path d="M48.5779 171.547C48.4066 180.109 43.3292 186.951 37.2372 186.829C31.1452 186.707 26.3456 179.668 26.5169 171.106C26.6882 162.544 36.2048 157.423 42.2968 157.545C48.3888 157.667 48.7492 162.986 48.5779 171.547Z" fill="#202625"/>
<path d="M67.5417 147.91C67.6273 143.629 71.1671 140.228 75.448 140.314L95.124 140.708C99.4049 140.793 102.806 144.333 102.72 148.614C102.634 152.895 99.0947 156.296 94.8138 156.21L75.1378 155.816C70.8569 155.731 67.456 152.191 67.5417 147.91Z" fill="#202625"/>
<path d="M127.268 190.561C108.694 239.399 104.807 239.918 88.7081 239.596C72.6096 239.274 66.0982 251.67 43.7933 188.891C44.5747 149.837 44.5748 149.837 83.0327 150.606C128.049 151.507 128.049 151.507 127.268 190.561Z" fill="#E3E6E5"/>
<path fill-rule="evenodd" clip-rule="evenodd" d="M92.2917 51.3406C87.7611 54.3394 83.674 59.6848 82.3305 68.6884L76.3962 67.8029C77.9738 57.2305 82.9381 50.3364 88.9801 46.3373C94.9252 42.4023 101.734 41.3899 106.93 42.1918L106.015 48.1216C102.205 47.5336 96.9193 48.2777 92.2917 51.3406Z" fill="#9FA6A4"/>
<path d="M112.25 70.9786C126.651 69.3621 139.636 79.7264 141.253 94.1279L141.718 98.2764C143.335 112.678 132.971 125.663 118.569 127.28L112.25 70.9786Z" fill="#202625"/>
<path d="M47.4517 135.262C33.0502 136.879 20.065 126.515 18.4484 112.113L17.9828 107.965C16.3662 93.5632 26.7305 80.578 41.132 78.9615L47.4517 135.262Z" fill="#202625"/>
<path d="M128.447 97.6658C133.004 138.262 96.2327 142.389 84.4075 143.717C72.5823 145.044 35.8109 149.171 31.2541 108.575C26.6973 67.9795 38.3605 66.6703 75.2939 62.5246C112.227 58.379 123.891 57.0698 128.447 97.6658Z" fill="#E3E6E5"/>
<path fill-rule="evenodd" clip-rule="evenodd" d="M61.7704 64.112C58.9534 74.0201 50.391 81.7378 39.5212 82.9579C36.7515 83.2688 34.0344 83.1352 31.4411 82.6138C34.557 69.9199 44.0669 66.5344 61.7704 64.112Z" fill="#202625"/>
<path d="M74.142 110.031C75.4008 121.245 67.3301 131.357 56.1156 132.616C44.9011 133.875 34.7895 125.804 33.5307 114.589C32.2719 103.375 40.3426 93.2634 51.5571 92.0046C62.7716 90.7458 72.8832 98.8165 74.142 110.031Z" fill="#202625"/>
<path d="M126.937 104.105C128.196 115.319 120.125 125.431 108.911 126.69C97.6961 127.949 87.5844 119.878 86.3256 108.663C85.0668 97.4488 93.1375 87.3372 104.352 86.0784C115.567 84.8196 125.678 92.8903 126.937 104.105Z" fill="#202625"/>
<path d="M91.2261 129.613C91.4916 131.978 87.9921 134.312 83.4098 134.827C78.8276 135.341 74.8976 133.841 74.6322 131.476C74.3667 129.11 78.3468 131.059 82.9291 130.544C87.5114 130.03 90.9606 127.248 91.2261 129.613Z" fill="#373F41"/>
<path d="M108.63 44.08C109.016 47.5168 106.675 50.6006 103.402 50.968C100.129 51.3354 97.1629 48.8472 96.7771 45.4105C96.3913 41.9738 98.732 38.8899 102.005 38.5225C105.278 38.1551 108.244 40.6433 108.63 44.08Z" fill="#202625"/>
<path fill-rule="evenodd" clip-rule="evenodd" d="M122.605 72.1857C120.04 73.4109 117.23 74.2355 114.246 74.5705C103.37 75.7912 93.305 70.1572 88.3643 61.1118C106.48 59.4714 116.667 60.5289 122.605 72.1857Z" fill="#202625"/>
</g>
<path opacity="0.5" d="M52.7034 94.7358C54.2802 96.4145 49.2516 97.7982 45.1155 102.208C40.9793 106.617 39.3017 112.381 37.727 110.702C36.1524 109.023 37.0598 103.033 41.1938 98.6239C45.3279 94.2144 51.1288 93.0548 52.7034 94.7358Z" fill="#C3CBCD"/>
<path opacity="0.5" d="M106.685 88.6925C108.36 90.2725 103.017 91.5748 98.6227 95.7249C94.228 99.875 92.4455 105.299 90.7725 103.719C89.0994 102.139 90.0636 96.502 94.4559 92.3519C98.8483 88.2018 105.012 87.1104 106.685 88.6925Z" fill="#C3CBCD"/>
<path opacity="0.2" d="M58.1318 128.748C57.285 127.891 60.6866 127.018 63.5132 124.16C66.3397 121.301 66.857 117.26 67.7037 118.117C68.5505 118.973 67.5859 122.496 64.7617 125.364C61.9375 128.232 58.9762 129.604 58.1318 128.748Z" fill="#C3CBCD"/>
<path opacity="0.2" d="M112.132 121.748C111.285 120.891 114.687 120.018 117.513 117.16C120.34 114.301 120.857 110.26 121.704 111.117C122.551 111.973 121.586 115.496 118.762 118.364C115.938 121.232 112.976 122.604 112.132 121.748Z" fill="#C3CBCD"/>
</svg>
