<svg width="301" height="12" viewBox="0 0 301 12" fill="none" xmlns="http://www.w3.org/2000/svg">
<path fill-rule="evenodd" clip-rule="evenodd" d="M301 4.99988L167 4.99988L167 3.99988L301 3.99988L301 4.99988Z" fill="#9FA6A4"/>
<path fill-rule="evenodd" clip-rule="evenodd" d="M134 4.99988L-1.06351e-09 4.99988L0 3.99988L134 3.99988L134 4.99988Z" fill="#9FA6A4"/>
<path d="M145.676 11.1119C144.771 11.1119 143.982 10.9066 143.31 10.4959C142.648 10.0853 142.134 9.49726 141.77 8.73192C141.416 7.96659 141.238 7.06126 141.238 6.01592C141.238 4.97059 141.416 4.06526 141.77 3.29992C142.125 2.53459 142.634 1.94659 143.296 1.53592C143.968 1.12526 144.762 0.919922 145.676 0.919922C146.591 0.919922 147.384 1.12526 148.056 1.53592C148.728 1.94659 149.242 2.53459 149.596 3.29992C149.951 4.05592 150.128 4.95659 150.128 6.00192C150.128 7.04726 149.946 7.95726 149.582 8.73192C149.228 9.49726 148.714 10.0853 148.042 10.4959C147.38 10.9066 146.591 11.1119 145.676 11.1119ZM145.676 10.3419C146.796 10.3419 147.664 9.96392 148.28 9.20792C148.906 8.45192 149.218 7.38326 149.218 6.00192C149.218 4.62059 148.91 3.55659 148.294 2.80992C147.678 2.06326 146.806 1.68992 145.676 1.68992C144.556 1.68992 143.684 2.06792 143.058 2.82392C142.442 3.57059 142.134 4.62992 142.134 6.00192C142.134 7.37392 142.442 8.44259 143.058 9.20792C143.684 9.96392 144.556 10.3419 145.676 10.3419Z" fill="#5E6665"/>
<path d="M159.993 10.9999H159.097L157.851 7.68192C157.693 7.23392 157.473 6.93526 157.193 6.78592C156.913 6.62726 156.507 6.54792 155.975 6.54792H153.189V10.9999H152.321V1.03192H156.171C157.207 1.03192 158.01 1.26992 158.579 1.74592C159.149 2.21259 159.433 2.88459 159.433 3.76192C159.433 4.40592 159.261 4.94726 158.915 5.38592C158.579 5.82459 158.094 6.13259 157.459 6.30992C157.749 6.35659 157.996 6.47792 158.201 6.67392C158.407 6.86992 158.579 7.15926 158.719 7.54192L159.993 10.9999ZM156.115 5.79192C157.749 5.79192 158.565 5.11059 158.565 3.74792C158.565 2.43192 157.749 1.77392 156.115 1.77392H153.175V5.79192H156.115Z" fill="#5E6665"/>
</svg>
