<svg width="268" height="49" viewBox="0 0 268 49" fill="none" xmlns="http://www.w3.org/2000/svg">
<path d="M16.1088 48V6.912H0.23675V2.432H37.2928V6.912H21.4208V48H16.1088ZM43.0233 48V0.895996H48.2073V22.336L47.3753 22.976C48.2713 20.3733 49.7646 18.4107 51.8553 17.088C53.9459 15.7227 56.3566 15.04 59.0873 15.04C66.8099 15.04 70.6713 19.2853 70.6713 27.776V48H65.4873V28.032C65.4873 25.0453 64.8899 22.8693 63.6953 21.504C62.5006 20.096 60.6233 19.392 58.0633 19.392C55.0766 19.392 52.6873 20.3093 50.8953 22.144C49.1033 23.9787 48.2073 26.4533 48.2073 29.568V48H43.0233ZM106.829 44.16C105.421 45.4827 103.607 46.528 101.389 47.296C99.2128 48.064 96.9728 48.448 94.6688 48.448C91.3408 48.448 88.4608 47.7867 86.0288 46.464C83.6394 45.1413 81.7834 43.2427 80.4608 40.768C79.1808 38.2507 78.5408 35.264 78.5408 31.808C78.5408 28.48 79.1808 25.5573 80.4608 23.04C81.7408 20.5227 83.5114 18.56 85.7728 17.152C88.0768 15.744 90.7221 15.04 93.7088 15.04C96.5674 15.04 99.0208 15.68 101.069 16.96C103.117 18.1973 104.674 19.9893 105.741 22.336C106.85 24.6827 107.405 27.4987 107.405 30.784V31.744H83.0848V28.352H104.461L102.797 30.72C102.882 26.9653 102.135 24.0853 100.557 22.08C99.0208 20.0747 96.7594 19.072 93.7728 19.072C90.6581 19.072 88.2048 20.1813 86.4128 22.4C84.6634 24.576 83.7888 27.6053 83.7888 31.488C83.7888 35.6693 84.7061 38.8267 86.5408 40.96C88.4181 43.0933 91.1488 44.16 94.7328 44.16C96.6101 44.16 98.4021 43.8613 100.109 43.264C101.858 42.624 103.522 41.664 105.101 40.384L106.829 44.16ZM115.273 48V24.832C115.273 23.3387 115.231 21.8453 115.145 20.352C115.103 18.816 114.975 17.3013 114.761 15.808H119.689L120.393 23.744L119.689 23.552C120.287 20.736 121.567 18.624 123.529 17.216C125.535 15.7653 127.775 15.04 130.249 15.04C130.804 15.04 131.316 15.0827 131.785 15.168C132.297 15.2107 132.767 15.296 133.193 15.424L133.065 20.16C132.084 19.8187 130.953 19.648 129.673 19.648C127.455 19.648 125.663 20.1387 124.297 21.12C122.975 22.1013 121.993 23.36 121.353 24.896C120.756 26.3893 120.457 27.968 120.457 29.632V48H115.273ZM150.188 48.448C147.329 48.448 144.812 47.7867 142.636 46.464C140.502 45.0987 138.838 43.1787 137.644 40.704C136.492 38.1867 135.916 35.2427 135.916 31.872C135.916 28.5013 136.513 25.5573 137.708 23.04C138.902 20.5227 140.566 18.56 142.7 17.152C144.876 15.744 147.372 15.04 150.188 15.04C153.132 15.04 155.628 15.7653 157.676 17.216C159.724 18.6667 161.11 20.736 161.836 23.424L161.068 23.936V15.808H166.188V48H161.068V39.68L161.836 40.064C161.11 42.752 159.724 44.8213 157.676 46.272C155.628 47.7227 153.132 48.448 150.188 48.448ZM151.212 44.16C154.369 44.16 156.801 43.0933 158.508 40.96C160.214 38.784 161.068 35.712 161.068 31.744C161.068 27.776 160.193 24.7253 158.444 22.592C156.737 20.4587 154.326 19.392 151.212 19.392C148.054 19.392 145.58 20.5013 143.788 22.72C142.038 24.896 141.164 27.9467 141.164 31.872C141.164 35.7973 142.038 38.8267 143.788 40.96C145.58 43.0933 148.054 44.16 151.212 44.16Z" fill="#5CDDBE"/>
<path d="M176.211 48V0.895996H181.395V24.064L180.691 23.424C181.416 20.7787 182.803 18.7307 184.851 17.28C186.899 15.7867 189.373 15.04 192.275 15.04C195.133 15.04 197.629 15.7227 199.763 17.088C201.896 18.4533 203.56 20.3733 204.755 22.848C205.992 25.3227 206.611 28.2453 206.611 31.616C206.611 34.9867 205.992 37.952 204.755 40.512C203.56 43.0293 201.875 44.992 199.699 46.4C197.565 47.7653 195.091 48.448 192.275 48.448C189.373 48.448 186.899 47.7227 184.851 46.272C182.803 44.8213 181.416 42.752 180.691 40.064L181.395 39.36V48H176.211ZM191.315 44.16C194.429 44.16 196.861 43.072 198.611 40.896C200.36 38.6773 201.235 35.584 201.235 31.616C201.235 27.7333 200.36 24.7253 198.611 22.592C196.861 20.4587 194.429 19.392 191.315 19.392C188.115 19.392 185.661 20.48 183.955 22.656C182.248 24.7893 181.395 27.8187 181.395 31.744C181.395 35.712 182.248 38.784 183.955 40.96C185.661 43.0933 188.115 44.16 191.315 44.16ZM227.898 48.448C224.826 48.448 222.138 47.7653 219.834 46.4C217.572 45.0347 215.802 43.1147 214.522 40.64C213.284 38.1227 212.666 35.1573 212.666 31.744C212.666 28.3733 213.284 25.4293 214.522 22.912C215.802 20.3947 217.572 18.4533 219.834 17.088C222.138 15.7227 224.826 15.04 227.898 15.04C230.97 15.04 233.636 15.7227 235.898 17.088C238.202 18.4533 239.972 20.3947 241.21 22.912C242.49 25.4293 243.13 28.3733 243.13 31.744C243.13 35.1573 242.49 38.1227 241.21 40.64C239.972 43.1147 238.202 45.0347 235.898 46.4C233.636 47.7653 230.97 48.448 227.898 48.448ZM227.898 44.16C231.055 44.16 233.487 43.1147 235.194 41.024C236.943 38.8907 237.818 35.7973 237.818 31.744C237.818 27.776 236.943 24.7253 235.194 22.592C233.444 20.4587 231.012 19.392 227.898 19.392C224.783 19.392 222.33 20.4587 220.538 22.592C218.788 24.7253 217.914 27.776 217.914 31.744C217.914 35.7973 218.767 38.8907 220.474 41.024C222.223 43.1147 224.698 44.16 227.898 44.16ZM246.604 19.904V15.808H267.276V19.904H246.604ZM267.148 43.392V47.808C266.423 48.0213 265.698 48.1707 264.972 48.256C264.29 48.384 263.522 48.448 262.668 48.448C259.682 48.448 257.292 47.5947 255.5 45.888C253.751 44.1813 252.876 41.6213 252.876 38.208V7.552L258.06 5.696V37.504C258.06 39.2107 258.295 40.5333 258.764 41.472C259.276 42.4107 259.959 43.072 260.812 43.456C261.666 43.7973 262.626 43.968 263.692 43.968C264.332 43.968 264.908 43.9253 265.42 43.84C265.932 43.7547 266.508 43.6053 267.148 43.392Z" fill="#202625"/>
</svg>
