<svg width="41" height="41" viewBox="0 0 41 41" fill="none" xmlns="http://www.w3.org/2000/svg">
<path d="M2 20.5C2 10.2827 10.2827 2 20.5 2C30.7173 2 39 10.2827 39 20.5C39 30.7173 30.7173 39 20.5 39C10.2827 39 2 30.7173 2 20.5ZM41 20.5C41 9.17816 31.8218 0 20.5 0C9.17816 0 0 9.17816 0 20.5C0 31.8218 9.17816 41 20.5 41C31.8218 41 41 31.8218 41 20.5ZM25.6907 14L27 15.3093L21.8093 20.5L27 25.6907L25.6907 27L20.5 21.8093L15.3093 27L14 25.6907L19.1907 20.5L14 15.3093L15.3093 14L20.5 19.1907L25.6907 14Z" fill="#9FA6A4"/>
</svg>
